HIERARCHY
ROOT Hips
{
	OFFSET 0.000000 0.000000 0.000000
	CHANNELS 6 Xposition Yposition Zposition Zrotation Yrotation Xrotation 
	JOINT LowerBack
	{
		OFFSET 0.000000 0.000000 0.000000
		CHANNELS 3 Zrotation Yrotation Xrotation
		JOINT Spine
		{
			OFFSET 0.028270 2.035590 -0.193380
			CHANNELS 3 Zrotation Yrotation Xrotation
			JOINT Spine1
			{
				OFFSET 0.056720 2.048850 -0.042750
				CHANNELS 3 Zrotation Yrotation Xrotation
				JOINT Neck
				{
					OFFSET 0.000000 0.000000 0.000000
					CHANNELS 3 Zrotation Yrotation Xrotation
					JOINT Neck1
					{
						OFFSET -0.054170 1.746240 0.172020
						CHANNELS 3 Zrotation Yrotation Xrotation
						JOINT Head
						{
							OFFSET 0.104070 1.761360 -0.123970
							CHANNELS 3 Zrotation Yrotation Xrotation
							End Site
							{
								OFFSET 0.000000 0.000000 0.000000
							}
						}
					}
				}
				JOINT LeftShoulder
				{
					OFFSET 0.000000 0.000000 0.000000
					CHANNELS 3 Zrotation Yrotation Xrotation
					JOINT LeftArm
					{
						OFFSET 3.362410 1.200890 -0.311210
						CHANNELS 3 Zrotation Yrotation Xrotation
						JOINT LeftForeArm
						{
							OFFSET 4.983000 -0.000000 -0.000000
							CHANNELS 3 Zrotation Yrotation Xrotation
							JOINT LeftHand
							{
								OFFSET 3.483560 -0.000000 -0.000000
								CHANNELS 3 Zrotation Yrotation Xrotation
								JOINT LeftFingerBase
								{
									OFFSET 0.000000 0.000000 0.000000
									CHANNELS 3 Zrotation Yrotation Xrotation
									JOINT LeftHandIndex1
									{
										OFFSET 0.715260 -0.000000 -0.000000
										CHANNELS 3 Zrotation Yrotation Xrotation
										End Site
										{
											OFFSET 0.000000 0.000000 0.000000
										}
									}
								}
								JOINT LThumb
								{
									OFFSET 0.000000 0.000000 0.000000
									CHANNELS 3 Zrotation Yrotation Xrotation
									End Site
									{
										OFFSET 0.000000 0.000000 0.000000
									}
								}
							}
						}
					}
				}
				JOINT RightShoulder
				{
					OFFSET 0.000000 0.000000 0.000000
					CHANNELS 3 Zrotation Yrotation Xrotation
					JOINT RightArm
					{
						OFFSET -3.136600 1.374050 -0.404650
						CHANNELS 3 Zrotation Yrotation Xrotation
						JOINT RightForeArm
						{
							OFFSET -5.241900 -0.000000 -0.000000
							CHANNELS 3 Zrotation Yrotation Xrotation
							JOINT RightHand
							{
								OFFSET -3.444170 -0.000000 -0.000000
								CHANNELS 3 Zrotation Yrotation Xrotation
								JOINT RightFingerBase
								{
									OFFSET 0.000000 0.000000 0.000000
									CHANNELS 3 Zrotation Yrotation Xrotation
									JOINT RightHandIndex1
									{
										OFFSET -0.622530 -0.000000 -0.000000
										CHANNELS 3 Zrotation Yrotation Xrotation
										End Site
										{
											OFFSET 0.000000 0.000000 0.000000
										}
									}
								}
								JOINT RThumb
								{
									OFFSET 0.000000 0.000000 0.000000
									CHANNELS 3 Zrotation Yrotation Xrotation
									End Site
									{
										OFFSET 0.000000 0.000000 0.000000
									}
								}
							}
						}
					}
				}
			}
		}
	}
}
}
MOTION
Frames: 12
Frame Time: 0.008333
23.787904 15.949160 0.336853 171.948741 -82.145675 -153.991184 -9.813756 3.671568 -7.725475 -2.660322 4.278199 -4.944217 -4.046739 4.077689 -0.635702 3.846727 -2.167119 -8.708507 -1.489143 -0.104962 -0.281263 0.000000 0.000000 0.000000 -6.546981 20.383947 2.355954 -42.318108 35.339469 -6.716825 -4.907982 -4.914484 -0.012101 11.474383 8.948148 0.918177 -0.150000 -0.060364 0.000000 0.000000 0.000000 0.000000 0.000000 0.000000 0.000000 0.309175 6.197285 0.369074 50.699273 54.126481 28.380782 0.741299 74.066670 -0.011098 -1.460763 7.048231 -0.095341 -0.002225 -0.511066 -0.000000 0.000000 0.000000 0.000000 0.000000 0.000000 0.000000 
23.588173 15.951587 0.345214 171.826395 -81.879549 -154.454773 -9.927520 3.630723 -7.236932 -2.735343 4.238942 -4.889968 -4.355170 4.049970 -0.785304 4.511050 -1.766824 -8.730494 -1.740053 -0.124231 -0.305624 0.000000 0.000000 0.000000 -7.070217 20.025552 2.476309 -43.515434 33.564699 -5.487635 -4.919601 -5.049999 -0.008383 11.167904 8.233760 0.821225 -0.132326 -0.057943 -0.000000 0.000000 0.000000 0.000000 0.000000 0.000000 0.000000 1.835261 6.969258 0.538848 52.919647 51.914820 29.263443 0.817416 73.143785 -0.012164 -1.953981 7.193518 -0.131741 0.020376 -0.509032 -0.000000 0.000000 0.000000 0.000000 0.000000 0.000000 0.000000 
23.393860 15.952592 0.354217 171.227054 -81.690039 -154.479882 -10.045683 3.551222 -6.665043 -2.804983 4.162349 -4.826548 -4.659887 3.984332 -0.971694 5.143760 -1.338702 -8.713811 -2.006185 -0.145109 -0.321664 0.000000 0.000000 0.000000 -7.561769 19.572994 2.608891 -44.741252 31.609289 -4.023869 -4.913881 -5.027815 -0.004639 10.893847 7.432322 0.722270 -0.114270 -0.056524 -0.000000 0.000000 0.000000 0.000000 0.000000 0.000000 0.000000 3.396650 7.736566 0.678315 55.042013 49.515736 29.900732 0.890460 71.979871 -0.013716 -2.498340 7.352619 -0.173166 0.041601 -0.506412 -0.000000 0.000000 0.000000 0.000000 0.000000 0.000000 0.000000 
23.204893 15.951993 0.363606 170.089041 -81.594045 -153.981391 -10.179007 3.426797 -6.031505 -2.870382 4.042982 -4.752018 -4.951534 3.874892 -1.171693 5.741621 -0.912577 -8.670387 -2.280080 -0.166740 -0.332514 0.000000 0.000000 0.000000 -7.989464 19.070066 2.754095 -46.024417 29.453387 -2.516907 -4.886903 -4.947601 -0.001211 10.687153 6.581530 0.626816 -0.096325 -0.055327 -0.000000 0.000000 0.000000 0.000000 0.000000 0.000000 0.000000 4.973947 8.449358 0.786042 57.050041 46.998542 30.300169 0.959849 70.528297 -0.015912 -3.111954 7.535983 -0.221525 0.061118 -0.502861 -0.000000 0.000000 0.000000 0.000000 0.000000 0.000000 0.000000 
23.020717 15.950100 0.373422 168.443548 -81.594589 -152.970344 -10.316260 3.263937 -5.362342 -2.928898 3.886442 -4.671920 -5.223214 3.726345 -1.388615 6.285650 -0.484112 -8.586590 -2.554342 -0.188679 -0.333564 0.000000 0.000000 0.000000 -8.365501 18.463993 2.901565 -47.339414 27.089775 -0.858231 -4.844570 -4.665473 0.001784 10.514053 5.659998 0.529955 -0.078862 -0.054234 -0.000000 0.000000 0.000000 0.000000 0.000000 0.000000 0.000000 6.513531 9.091917 0.863755 58.972100 44.360106 30.440304 1.025056 68.761947 -0.018677 -3.783731 7.752840 -0.277023 0.078219 -0.498049 -0.000000 0.000000 0.000000 0.000000 0.000000 0.000000 0.000000 
22.840419 15.947484 0.383577 166.311507 -81.688352 -151.450014 -10.452260 3.067786 -4.680473 -2.980211 3.697066 -4.583548 -5.469980 3.543004 -1.593844 6.780609 -0.092184 -8.482018 -2.821436 -0.209985 -0.329801 0.000000 0.000000 0.000000 -8.674891 17.804886 3.045147 -48.691299 24.459819 0.909054 -4.785276 -4.216727 0.004121 10.384746 4.701776 0.434787 -0.062285 -0.052600 -0.000000 0.000000 0.000000 0.000000 0.000000 0.000000 0.000000 8.000497 9.611552 0.915130 60.800524 41.682993 30.336893 1.084985 66.651328 -0.022022 -4.530096 8.018815 -0.342565 0.092969 -0.491555 -0.000000 0.000000 0.000000 0.000000 0.000000 0.000000 0.000000 
22.663625 15.945054 0.394178 163.763195 -81.858695 -149.474419 -10.570970 2.850697 -4.009024 -3.022072 3.485797 -4.490347 -5.689283 3.335437 -1.781906 7.220986 0.260826 -8.355954 -3.073708 -0.230030 -0.320141 0.000000 0.000000 0.000000 -8.933682 17.078157 3.175700 -50.065906 21.559605 2.768128 -4.712417 -3.548326 0.005737 10.293126 3.686570 0.338113 -0.047088 -0.050109 -0.000000 0.000000 0.000000 0.000000 0.000000 0.000000 0.000000 9.393494 9.995383 0.944086 62.562783 38.984564 29.967879 1.137617 64.186966 -0.025780 -5.343220 8.339211 -0.418952 0.105100 -0.482976 -0.000000 0.000000 0.000000 0.000000 0.000000 0.000000 0.000000 
22.489246 15.943843 0.405414 160.894845 -82.081984 -147.128532 -10.656986 2.626962 -3.370242 -3.053166 3.265737 -4.394525 -5.881711 3.116662 -1.941346 7.610481 0.560395 -8.217300 -3.304627 -0.248176 -0.306207 0.000000 0.000000 0.000000 -9.154442 16.293110 3.284572 -51.453653 18.381063 4.657523 -4.627902 -2.659335 0.006585 10.247864 2.611411 0.239034 -0.033683 -0.046429 -0.000000 0.000000 0.000000 0.000000 0.000000 0.000000 0.000000 10.668985 10.225044 0.957883 64.269254 36.303111 29.315094 1.180760 61.367467 -0.029788 -6.226754 8.713847 -0.508381 0.114763 -0.471896 -0.000000 0.000000 0.000000 0.000000 0.000000 0.000000 0.000000 
22.316779 15.944951 0.417360 157.803680 -82.329099 -144.495252 -10.700936 2.409398 -2.784036 -3.073204 3.049231 -4.299525 -6.048719 2.898944 -2.066919 7.952168 0.811974 -8.071600 -3.507853 -0.263855 -0.288792 0.000000 0.000000 0.000000 -9.352349 15.465379 3.366216 -52.842182 14.932537 6.489011 -4.534134 -1.570356 0.006685 10.262371 1.472215 0.136149 -0.022441 -0.041338 -0.000000 0.000000 0.000000 0.000000 0.000000 0.000000 0.000000 11.797756 10.307498 0.961818 65.942774 33.652918 28.333192 1.211388 58.207226 -0.033840 -7.175200 9.128407 -0.611250 0.121971 -0.457926 -0.000000 0.000000 0.000000 0.000000 0.000000 0.000000 0.000000 
22.145686 15.949566 0.430057 154.585588 -82.567504 -141.659739 -10.702891 2.202794 -2.264671 -3.084459 2.840999 -4.209369 -6.199140 2.686745 -2.159327 8.266890 0.993938 -7.933474 -3.679944 -0.276715 -0.271145 0.000000 0.000000 0.000000 -9.559597 14.595381 3.417716 -54.163496 11.513617 8.219359 -4.433544 -0.929875 0.006096 10.349377 0.523279 0.050562 -0.013493 -0.035034 -0.000000 0.000000 0.000000 0.000000 0.000000 0.000000 0.000000 12.797090 10.238202 0.975004 67.580174 31.092039 27.019044 1.232330 54.721790 -0.037701 -8.199268 9.553711 -0.727949 0.127641 -0.440652 -0.000000 0.000000 0.000000 0.000000 0.000000 0.000000 0.000000 
21.975488 15.958525 0.443561 151.384159 -82.766794 -138.750781 -10.660010 2.000617 -1.815303 -3.087477 2.634031 -4.131865 -6.341247 2.472144 -2.244634 8.563265 1.132812 -7.810820 -3.814799 -0.286314 -0.254307 0.000000 0.000000 0.000000 -9.805318 13.678681 3.452376 -55.259196 8.859819 9.839517 -4.323928 -2.362438 0.005001 10.519041 0.419160 0.041175 -0.006940 -0.027945 -0.000000 0.000000 0.000000 0.000000 0.000000 0.000000 0.000000 13.649835 10.079488 1.011365 69.212804 28.609490 25.302286 1.249625 50.949459 -0.041023 -9.284062 9.953586 -0.855467 0.132309 -0.420041 -0.000000 0.000000 0.000000 0.000000 0.000000 0.000000 0.000000 
21.805834 15.972598 0.457819 148.309884 -82.916225 -135.882410 -10.577579 1.820753 -1.453453 -3.082240 2.447863 -4.060972 -6.470429 2.276225 -2.285787 8.837934 1.233305 -7.708193 -3.917415 -0.292957 -0.240629 0.000000 0.000000 0.000000 -10.052436 12.788858 3.458680 -56.260740 6.006640 11.125366 -4.210958 -3.784752 0.003535 10.770201 0.294658 0.029587 -0.002990 -0.019144 -0.000000 0.000000 0.000000 0.000000 0.000000 0.000000 0.000000 14.351989 9.819121 1.063145 70.809442 26.237683 23.126162 1.255267 46.931900 -0.043794 -10.424218 10.285776 -0.988807 0.135171 -0.396019 -0.000000 0.000000 0.000000 0.000000 0.000000 0.000000 0.000000 
